# xmcd
#
# Track frame offsets: 
#        150
#        20599
#        38797
#        59540
#        69226
#        89174
#        103650
#        121359
#        131350
#        149182
#        164344
#        187564
#        207698
#        229117
#        247782
#        276838
#        287390
#        302573
#        321615
#
# Disc length: 4776 seconds
#
# Revision: 9
# Processed by: cddbd v1.5.2PL0 Copyright (c) Steve Scherf et al.
# Submitted via: ExactAudioCopy v0.99pb5
#
DISCID=1b12a613
DTITLE=Moby - 18
DYEAR=2002
DGENRE=Electronic
TTITLE0=We Are All Made Of Stars
TTITLE1=In This World
TTITLE2=In My Heart
TTITLE3=Great Escape
TTITLE4=Sings Of Love
TTITLE5=One Of These Mornings
TTITLE6=Another Woman
TTITLE7=Fireworks
TTITLE8=Extreme Ways
TTITLE9=Jam For The Ladies (feat. Angie Stone and Mc Lyte)
TTITLE10=Sunday (The Day Before My Birthday)
TTITLE11=18
TTITLE12=Sleep Alone
TTITLE13=At Least We Tried
TTITLE14=Harbour (feat. Sinead O'Connor)
TTITLE15=Look Back In
TTITLE16=The Rafters
TTITLE17=I'm Not Worried At All
TTITLE18=We Are All Made Of Stars (Dj Tiesto Vocal Mix)
EXTD=
EXTT0=
EXTT1=
EXTT2=
EXTT3=
EXTT4=
EXTT5=
EXTT6=
EXTT7=
EXTT8=
EXTT9=
EXTT10=
EXTT11=
EXTT12=
EXTT13=
EXTT14=
EXTT15=
EXTT16=
EXTT17=
EXTT18=
PLAYORDER=
